# xmcd
#
# Track frame offsets: 
#        150
#        25305
#        50295
#        71410
#        93073
#        109795
#        133680
#        156785
#        171423
#        196073
#
# Disc length: 2942 seconds
#
# Revision: 1
# Processed by: cddbd v1.5.2PL0 Copyright (c) Steve Scherf et al.
# Submitted via: ExactAudioCopyFreeDBPlugin 1.0
#
DISCID=7c0b7c0a
DTITLE=Keiko Matsui - Spring Selection-Best
DYEAR=2003
DGENRE=Jazz
TTITLE0=Tribal Boat
TTITLE1=Water Lily
TTITLE2=Bridge Over The Stars
TTITLE3=Valley
TTITLE4=Water Fairy
TTITLE5=Presence Of The Moon
TTITLE6=Grey Cliffs
TTITLE7=1942, From Russia
TTITLE8=Bouncing Bougainvillea
TTITLE9=Believer
EXTD=
EXTT0=
EXTT1=
EXTT2=
EXTT3=
EXTT4=
EXTT5=
EXTT6=
EXTT7=
EXTT8=
EXTT9=
PLAYORDER=
